<svg width="230" height="440" viewBox="0 0 230 440" fill="none" xmlns="http://www.w3.org/2000/svg">
<path fill-rule="evenodd" clip-rule="evenodd" d="M95.981 60.9144C92.7812 54.203 91.4211 46.6625 93.9651 39.3002C101.295 18.0872 130.196 30.9071 133.134 43.3874C136.073 55.8676 127.938 83.3594 119.827 83.2823C116.593 83.2516 110.659 79.6241 105.159 73.9282L101.471 104.078L77.1578 97.5817L95.981 60.9144Z" fill="#D4A181"></path>
<path fill-rule="evenodd" clip-rule="evenodd" d="M104.804 61.6427C100.239 66.6082 94.9011 69.84 90.7354 68.7269C82.8228 66.6126 80.0314 54.5598 83.0791 43.2172C83.1862 42.8187 83.3004 42.4249 83.4216 42.0362C73.5126 45.5275 64.0283 55.094 52.9533 52.1347C37.886 48.1086 40.0453 16.2028 61.0966 21.8278C75.413 25.6533 81.8959 29.6166 87.1378 34.3164C89.239 31.271 91.8245 28.9295 94.5873 27.55C95.2861 27.0908 96.2643 26.734 97.4699 26.4832C98.2143 26.3024 98.9637 26.1934 99.7126 26.1608C103.733 25.7975 109.289 26.268 115.266 27.6442C116.382 27.9011 117.471 28.1801 118.527 28.4773C120.039 22.9173 125.779 19.6217 131.363 21.1138C136.958 22.6088 140.278 28.3437 138.779 33.923C137.329 39.3188 131.903 42.593 126.487 41.4505C123.18 41.5742 119.07 41.2156 114.639 40.3437C114.636 42.0413 114.382 43.9029 113.835 45.9373C113.353 47.7336 112.642 49.5856 111.756 51.4221C111.113 50.051 110.047 48.9836 108.766 48.6413C105.182 47.6837 101.898 49.9571 101.059 53.0785C99.9945 57.0401 101.518 60.5189 104.804 61.6427Z" fill="#513B2F"></path>
<path fill-rule="evenodd" clip-rule="evenodd" d="M46.1459 190.038L84.5632 322.054L102.633 421.174H120.769L102.665 190.038H46.1459Z" fill="#BA8B72"></path>
<path fill-rule="evenodd" clip-rule="evenodd" d="M28.8807 190.038C31.5614 258.62 30.5042 296.026 29.9042 302.257C29.3043 308.488 25.8983 350.219 2.68872 423.266H21.5522C52.2894 353.19 63.0195 311.459 66.5448 302.257C70.0701 293.055 80.482 255.649 95.6829 190.038H28.8807Z" fill="#D4A181"></path>
<path fill-rule="evenodd" clip-rule="evenodd" d="M45.3212 190.038C55.3141 235.465 72.5976 307.979 97.1717 407.578H123.698C125.658 305.349 117.323 238.065 102.889 190.038H45.3212Z" fill="#69A1AC"></path>
<path fill-rule="evenodd" clip-rule="evenodd" d="M28.7467 190.038C31.372 258.62 24.5683 326.186 3.49294 408.646H31.7953C62.5891 339.616 84.6599 272.383 99.7439 190.038H28.7467Z" fill="#89C5CC"></path>
<path fill-rule="evenodd" clip-rule="evenodd" d="M0 436.862L1.04082 420.129C7.1347 421.906 14.7674 421.209 23.9389 418.037C33.8005 425.003 46.215 429.76 61.1824 432.307C62.3243 432.501 63.092 433.582 62.8972 434.721C62.8845 434.794 62.868 434.867 62.8475 434.939L61.4086 440H23.9389H2.08165L0 436.862Z" fill="#2A2A2A"></path>
<path fill-rule="evenodd" clip-rule="evenodd" d="M98.5844 436.862L99.6252 420.129C105.719 421.906 113.352 421.209 122.523 418.037C132.385 425.003 144.799 429.76 159.767 432.307C160.909 432.501 161.676 433.582 161.482 434.721C161.469 434.794 161.452 434.867 161.432 434.939L159.993 440H122.523H100.666L98.5844 436.862Z" fill="#2A2A2A"></path>
<path fill-rule="evenodd" clip-rule="evenodd" d="M121.187 131.243L160.498 117.966C167.708 111.955 174.552 107.505 181.028 104.616C182.926 104.191 186.097 104.289 182.301 108.899C178.504 113.508 174.719 118.527 175.913 120.362C177.108 122.198 181.17 120.641 182.464 123.57C183.327 125.523 176.564 127.178 162.175 128.536L131.92 147.741L121.187 131.243ZM174.413 157.636L191.685 151.779C195.377 143.783 198.764 140.029 201.847 140.517C204.401 139.836 198.417 149.708 203.054 149.576C207.692 149.444 220.046 143.264 221.638 145.24C223.992 148.162 220.188 155.198 216.606 158.4C209.91 164.386 204.964 165.965 193.226 167.109C187.089 167.707 180.188 169.855 172.523 173.553L174.413 157.636Z" fill="#D4A181"></path>
<path fill-rule="evenodd" clip-rule="evenodd" d="M104.499 123.811C117.079 125.887 134.291 126.187 154.158 118.019L158.415 134.856C143.935 144.886 124.834 151.86 109.758 148.771C97.8762 146.337 94.3203 130.861 104.499 123.811Z" fill="#254564"></path>
<path fill-rule="evenodd" clip-rule="evenodd" d="M116.982 151.808C129.726 157.468 152.772 157.489 186.12 151.872C191.064 169.298 192.638 181.378 190.841 188.113C161.444 197.402 137.267 199.597 118.186 196.667C116.802 208.02 113.537 218.481 107.196 227.449C94.1608 245.885 41.9382 217.506 22.6246 217.888C17.6292 177.976 42.9505 166.566 47.2517 142.346C51.9619 115.823 80.5401 78.7481 83.6826 79.3007L112.34 84.3399C110.34 104.877 114.351 128.603 116.982 151.808Z" fill="#2B5278"></path>
</svg>
