<svg width="36" height="36" viewBox="0 0 36 36" fill="none" xmlns="http://www.w3.org/2000/svg">
<g clip-path="url(#clip0_4_618)">
<path fill-rule="evenodd" clip-rule="evenodd" d="M14.25 10.5C13.2554 10.5 12.3016 10.8951 11.5983 11.5983C10.8951 12.3016 10.5 13.2554 10.5 14.25C10.5 15.2446 10.8951 16.1984 11.5983 16.9017C12.3016 17.6049 13.2554 18 14.25 18C15.2446 18 16.1984 17.6049 16.9017 16.9017C17.6049 16.1984 18 15.2446 18 14.25C18 13.2554 17.6049 12.3016 16.9017 11.5983C16.1984 10.8951 15.2446 10.5 14.25 10.5ZM12.75 14.25C12.75 13.8522 12.908 13.4706 13.1893 13.1893C13.4706 12.908 13.8522 12.75 14.25 12.75C14.6478 12.75 15.0294 12.908 15.3107 13.1893C15.592 13.4706 15.75 13.8522 15.75 14.25C15.75 14.6478 15.592 15.0294 15.3107 15.3107C15.0294 15.592 14.6478 15.75 14.25 15.75C13.8522 15.75 13.4706 15.592 13.1893 15.3107C12.908 15.0294 12.75 14.6478 12.75 14.25Z" fill="#2A2A2A"/>
<path fill-rule="evenodd" clip-rule="evenodd" d="M6 9.375C6 8.47989 6.35558 7.62145 6.98851 6.98851C7.62145 6.35558 8.47989 6 9.375 6H26.625C27.5201 6 28.3785 6.35558 29.0115 6.98851C29.6444 7.62145 30 8.47989 30 9.375V26.625C30 27.5201 29.6444 28.3785 29.0115 29.0115C28.3785 29.6444 27.5201 30 26.625 30H9.375C8.47989 30 7.62145 29.6444 6.98851 29.0115C6.35558 28.3785 6 27.5201 6 26.625V9.375ZM27.75 9.375V18.285L24.9975 15.531C24.5396 15.0733 23.9287 14.801 23.2822 14.7664C22.6357 14.7318 21.9992 14.9373 21.495 15.3435L8.25 26.004V9.375C8.25 9.07663 8.36853 8.79048 8.5795 8.5795C8.79048 8.36853 9.07663 8.25 9.375 8.25H26.625C26.9234 8.25 27.2095 8.36853 27.4205 8.5795C27.6315 8.79048 27.75 9.07663 27.75 9.375ZM26.625 27.75H9.669L22.9065 17.0955C22.9785 17.0377 23.0692 17.0086 23.1614 17.0135C23.2536 17.0185 23.3407 17.0573 23.406 17.1225L27.75 21.4665V26.625C27.75 26.9234 27.6315 27.2095 27.4205 27.4205C27.2095 27.6315 26.9234 27.75 26.625 27.75Z" fill="#2A2A2A"/>
</g>
</svg>