<svg width="230" height="440" viewBox="0 0 210 417" fill="none" xmlns="http://www.w3.org/2000/svg">
<path d="M140.26 42.5101L129.625 44.255L126.767 20.125L138.515 4.88502L153.912 8.53755L170.265 0.125061L178.52 17.9025L195.662 24.8901L187.885 46.6376L177.725 44.0976" fill="#513B2F"/>
<path d="M139.214 364.983L136.818 382.436L153.829 381.999L155.139 363.243L139.214 364.983Z" fill="#2A2A2A"/>
<path d="M151.482 391.648L154.918 417H168.33L170.293 411.437L166.795 388.433L151.482 391.648Z" fill="#2A2A2A"/>
<path d="M175.2 84.0187L168.002 79.2206L162.767 64.3896L150.684 67.8364L146.849 77.2572L138.563 81.4025L156.605 110.516L175.2 84.0187Z" fill="#D4A181"/>
<path d="M163.026 74.9611H152.14L140.415 59.8862L142.508 27.6434L146.983 23.9299L169.137 24.1509L176.42 29.3173L175.998 59.8862L163.026 74.9611Z" fill="#D4A181"/>
<path d="M141.723 40.9683L134.555 41.0876L133.989 53.5743L141.301 53.1933L141.723 40.9683Z" fill="#D4A181"/>
<path d="M175.475 42.6675L182.708 44.636L182.14 55.1059L175.744 55.3548L175.475 42.6675Z" fill="#D4A181"/>
<path d="M127.375 187.209L139.214 364.981H152.955L156.005 212.942L148.909 286.5L151.647 391.808L166.691 388.537L174.55 287.122L184.794 188.514L127.375 187.209Z" fill="#5C5C5C"/>
<path d="M154.621 212.69L147.715 291.702L150.971 365.004L137.466 339.426L130.923 236.071L154.621 212.69Z" fill="#2A2A2A" fill-opacity="0.5"/>
<path d="M203.356 176.945L209.323 191.595L208.174 211.895L201.436 209.309L200.062 192.169L200.62 197.336L194.525 197.608L196.742 183.513L203.356 176.945Z" fill="#D4A181"/>
<path d="M98.2053 173.099L93.6942 184.476L94.093 203.216L101.457 202.248L102.95 185.113L102.358 190.277L108.695 191.151L106.57 176.945L98.2053 173.099Z" fill="#D4A181"/>
<path d="M138.23 81.0748L122.419 87.9455L97.4356 175.106L106.554 176.973L130.704 99.721L127.217 187.204L184.794 188.514L179.996 106.703L196.572 183.714L204.969 180.008L190.031 92.7436L175.2 83.6885L153.938 82.4236L138.23 81.0748Z" fill="#2B5278"/>
<path d="M139.188 364.971L151.055 364.93L147.682 288.532L149.625 274.125L133.115 272.855L139.188 364.971Z" fill="#AA8B7E"/>
<path d="M149.229 274.084L147.641 288.649L151.53 391.836L166.745 388.529L175.825 274.321L149.229 274.084Z" fill="#D4A181"/>
<path d="M103.379 322.126L102.056 404.696L88.3652 404.673L87.2554 344.559L103.379 322.126Z" fill="#2A2A2A"/>
<path d="M87.5551 361.176L102.559 378.638L102.094 404.849L88.1113 404.856L87.5551 361.176Z" fill="#513B2F"/>
<path d="M49.864 348.765L50.8596 404.849H66.2216L65.9904 351.102L49.864 348.765Z" fill="#2A2A2A"/>
<path d="M15.0456 265.108L26.7321 417H41.3751L43.2473 356.241H61.3193L64.1184 417H79.5438L83.7501 359.045L103.377 322.126L90.2906 280.066L60.8468 264.173L15.0456 265.108Z" fill="#513B2F"/>
<path d="M61.0806 264.171L61.5505 315.817L42.1372 335.243L18.6422 311.986L14.8119 265.106L61.0806 264.171Z" fill="white"/>
<path d="M15.5713 245.418L0.676819 222.479L6.18346 211.898L27.7226 223.919L15.5713 245.418Z" fill="#2A2A2A"/>
<path d="M59.8561 245.827L76.031 221.207L69.4701 212.319L48.2865 223.978L59.8561 245.827Z" fill="#2A2A2A"/>
<path d="M48.6955 223.98L66.4552 258.562L43.9635 280.793L30.311 280.635L8.40354 258.728L27.4306 223.98H48.6955Z" fill="#513B2F"/>
<path d="M49.361 255.075L43.9635 280.793L30.311 280.635L24.596 255.393L49.361 255.075Z" fill="#2A2A2A"/>
</svg>
