<svg width="200" height="400" viewBox="0 0 200 400" fill="none" xmlns="http://www.w3.org/2000/svg">
<path fill-rule="evenodd" clip-rule="evenodd" d="M83.4617 55.3767C80.6793 49.2755 79.4966 42.4204 81.7088 35.7274C88.0828 16.4429 113.214 28.0974 115.769 39.443C118.324 50.7887 111.251 75.7812 104.198 75.7112C101.385 75.6832 96.2253 72.3856 91.4422 67.2074L88.2354 94.6166L67.0938 88.7106L83.4617 55.3767Z" fill="#D4A181"/>
<path fill-rule="evenodd" clip-rule="evenodd" d="M91.1341 56.0388C87.164 60.5529 82.5227 63.4909 78.9003 62.479C72.0199 60.5569 69.5925 49.5998 72.2427 39.2884C72.3358 38.9261 72.4352 38.5681 72.5406 38.2147C63.924 41.3886 55.6768 50.0855 46.0464 47.3952C32.9443 43.7351 34.822 14.7298 53.1275 19.8435C65.5766 23.3212 71.2138 26.9241 75.772 31.1967C77.5992 28.4282 79.8474 26.2995 82.2498 25.0455C82.8575 24.628 83.7081 24.3037 84.7564 24.0756C85.4038 23.9113 86.0554 23.8122 86.7066 23.7826C90.2027 23.4523 95.0337 23.88 100.231 25.1311C101.202 25.3647 102.149 25.6182 103.067 25.8885C104.382 20.8339 109.373 17.8379 114.229 19.1944C119.094 20.5535 121.981 25.767 120.677 30.8391C119.417 35.7443 114.698 38.7209 109.989 37.6823C107.113 37.7947 103.539 37.4687 99.6864 36.6761C99.6836 38.2193 99.4627 39.9117 98.9873 41.7611C98.5676 43.3942 97.9496 45.0778 97.1793 46.7474C96.6199 45.5009 95.693 44.5305 94.579 44.2193C91.4627 43.3488 88.6067 45.4155 87.8774 48.2532C86.9518 51.8547 88.2764 55.0172 91.1341 56.0388Z" fill="#513B2F"/>
<path fill-rule="evenodd" clip-rule="evenodd" d="M40.1269 172.762L73.5332 292.777L89.2459 382.886H105.017L89.274 172.762H40.1269Z" fill="#BA8B72"/>
<path fill-rule="evenodd" clip-rule="evenodd" d="M25.1137 172.762C27.4447 235.109 26.5254 269.115 26.0037 274.779C25.482 280.444 22.5202 318.381 2.33801 384.787H18.741C45.469 321.082 54.7995 283.145 57.865 274.779C60.9305 266.414 69.9843 232.408 83.2025 172.762H25.1137Z" fill="#D4A181"/>
<path fill-rule="evenodd" clip-rule="evenodd" d="M39.4097 172.762C48.0992 214.059 63.1284 279.981 84.4971 370.526H107.564C109.267 277.59 102.02 216.422 89.4689 172.762H39.4097Z" fill="#69A1AC"/>
<path fill-rule="evenodd" clip-rule="evenodd" d="M24.9971 172.762C27.28 235.109 21.3638 296.533 3.03734 371.496H27.6481C54.4253 308.741 73.6173 247.621 86.7338 172.762H24.9971Z" fill="#89C5CC"/>
<path fill-rule="evenodd" clip-rule="evenodd" d="M0 397.148L0.905064 381.935C6.20408 383.551 12.8412 382.917 20.8165 380.033C29.3918 386.366 40.187 390.691 53.2021 393.006C54.1951 393.183 54.8627 394.165 54.6932 395.201C54.6822 395.268 54.6678 395.334 54.65 395.399L53.3988 400H20.8165H1.81013L0 397.148Z" fill="#2A2A2A"/>
<path fill-rule="evenodd" clip-rule="evenodd" d="M85.7256 397.148L86.6306 381.935C91.9296 383.551 98.5668 382.917 106.542 380.033C115.117 386.366 125.913 390.691 138.928 393.006C139.921 393.183 140.588 394.165 140.419 395.201C140.408 395.268 140.393 395.334 140.376 395.399L139.124 400H106.542H87.5357L85.7256 397.148Z" fill="#2A2A2A"/>
<path fill-rule="evenodd" clip-rule="evenodd" d="M105.38 119.312L139.564 107.242C145.833 101.777 151.784 97.7318 157.416 95.1057C159.066 94.7192 161.824 94.8084 158.522 98.9988C155.221 103.189 151.93 107.752 152.968 109.42C154.007 111.089 157.539 109.674 158.665 112.337C159.415 114.111 153.534 115.616 141.021 116.851L114.713 134.31L105.38 119.312ZM151.663 143.306L166.683 137.98C169.893 130.712 172.839 127.299 175.519 127.742C177.74 127.124 172.536 136.098 176.569 135.978C180.602 135.858 191.345 130.24 192.728 132.036C194.775 134.693 191.468 141.089 188.353 144C182.531 149.441 178.229 150.877 168.022 151.917C162.686 152.461 156.685 154.413 150.02 157.775L151.663 143.306Z" fill="#D4A181"/>
<path fill-rule="evenodd" clip-rule="evenodd" d="M90.8687 112.556C101.808 114.443 116.775 114.715 134.05 107.29L137.752 122.597C125.161 131.715 108.552 138.055 95.4413 135.247C85.1097 133.034 82.0177 118.965 90.8687 112.556Z" fill="#254564"/>
<path fill-rule="evenodd" clip-rule="evenodd" d="M101.724 138.008C112.806 143.153 132.846 143.172 161.843 138.065C166.142 153.907 167.511 164.889 165.949 171.012C140.386 179.456 119.363 181.451 102.771 178.788C101.567 189.11 98.7276 198.619 93.214 206.772C81.879 223.532 36.468 197.732 19.6735 198.08C15.3297 161.796 37.3483 151.423 41.0884 129.405C45.1843 105.294 70.0349 71.5892 72.7675 72.0915L97.6874 76.6726C95.9475 95.3423 99.4353 116.912 101.724 138.008Z" fill="#2B5278"/>
</svg>
