<svg width="201" height="401" viewBox="0 0 201 401" fill="none" xmlns="http://www.w3.org/2000/svg">
<path d="M134.476 40.7943L124.282 42.4687L121.543 19.3154L132.803 4.69234L147.563 8.19702L163.238 0.125061L171.151 17.1829L187.583 23.8876L180.127 44.7547L170.388 42.3176" fill="#513B2F"/>
<path d="M133.473 350.214L131.177 366.96L147.482 366.541L148.739 348.544L133.473 350.214Z" fill="#2A2A2A"/>
<path d="M145.233 375.8L148.527 400.125H161.383L163.264 394.788L159.912 372.714L145.233 375.8Z" fill="#2A2A2A"/>
<path d="M167.968 80.6227L161.068 76.0189L156.05 61.7882L144.468 65.0955L140.792 74.135L132.85 78.1124L150.144 106.047L167.968 80.6227Z" fill="#D4A181"/>
<path d="M156.299 71.9317H145.863L134.625 57.467L136.631 26.5295L140.921 22.9663L162.157 23.1783L169.137 28.1356L168.733 57.467L156.299 71.9317Z" fill="#D4A181"/>
<path d="M135.878 39.3149L129.008 39.4295L128.465 51.4107L135.474 51.0451L135.878 39.3149Z" fill="#D4A181"/>
<path d="M168.231 40.9454L175.166 42.8343L174.62 52.8803L168.489 53.1192L168.231 40.9454Z" fill="#D4A181"/>
<path d="M122.125 179.636L133.473 350.212H146.645L149.569 204.327L142.766 274.908L145.391 375.953L159.812 372.814L167.345 275.505L177.165 180.888L122.125 179.636Z" fill="#5C5C5C"/>
<path d="M148.242 204.085L141.622 279.899L144.743 350.233L131.798 325.691L125.526 226.52L148.242 204.085Z" fill="#2A2A2A" fill-opacity="0.5"/>
<path d="M194.958 169.787L200.677 183.845L199.576 203.323L193.117 200.842L191.8 184.395L192.335 189.353L186.492 189.614L188.618 176.09L194.958 169.787Z" fill="#D4A181"/>
<path d="M94.1639 166.097L89.8398 177.013L90.222 194.995L97.2805 194.066L98.712 177.625L98.1448 182.58L104.219 183.418L102.182 169.787L94.1639 166.097Z" fill="#D4A181"/>
<path d="M132.531 77.798L117.374 84.3905L93.4262 168.022L102.167 169.814L125.316 95.6893L121.974 179.631L177.164 180.888L172.565 102.389L188.454 176.282L196.504 172.726L182.185 88.9944L167.968 80.3058L147.587 79.0921L132.531 77.798Z" fill="#2B5278"/>
<path d="M133.449 350.202L144.824 350.163L141.59 276.857L143.453 263.034L127.627 261.815L133.449 350.202Z" fill="#AA8B7E"/>
<path d="M143.073 262.995L141.551 276.969L145.279 375.98L159.863 372.807L168.567 263.221L143.073 262.995Z" fill="#D4A181"/>
<path d="M99.1235 309.092L97.855 388.319L84.7316 388.298L83.6678 330.617L99.1235 309.092Z" fill="#2A2A2A"/>
<path d="M83.955 346.561L98.3371 363.316L97.8915 388.466L84.4882 388.473L83.955 346.561Z" fill="#513B2F"/>
<path d="M47.8258 334.653L48.7801 388.466H63.5055L63.284 336.895L47.8258 334.653Z" fill="#2A2A2A"/>
<path d="M14.4502 254.382L25.6525 400.125H39.6887L41.4832 341.825H58.8065L61.4895 400.125H76.2758L80.3077 344.516L99.121 309.091L86.5772 268.734L58.3535 253.485L14.4502 254.382Z" fill="#513B2F"/>
<path d="M58.5776 253.482L59.028 303.038L40.4192 321.677L17.8978 299.362L14.2262 254.379L58.5776 253.482Z" fill="white"/>
<path d="M14.9541 235.489L0.676819 213.478L5.95528 203.325L26.6019 214.86L14.9541 235.489Z" fill="#2A2A2A"/>
<path d="M57.4039 235.881L72.9085 212.257L66.6195 203.73L46.3136 214.916L57.4039 235.881Z" fill="#2A2A2A"/>
<path d="M46.7057 214.919L63.7295 248.101L42.1699 269.431L29.0831 269.28L8.08337 248.259L26.322 214.919H46.7057Z" fill="#513B2F"/>
<path d="M47.3437 244.755L42.1699 269.431L29.0831 269.28L23.6049 245.059L47.3437 244.755Z" fill="#2A2A2A"/>
</svg>
