<svg width="24" height="24" viewBox="0 0 24 24" fill="none" xmlns="http://www.w3.org/2000/svg">
<path d="M9.375 9C9.67337 9 9.95952 9.11853 10.1705 9.3295C10.3815 9.54048 10.5 9.82663 10.5 10.125V18.375C10.5 18.6734 10.3815 18.9595 10.1705 19.1705C9.95952 19.3815 9.67337 19.5 9.375 19.5C9.07663 19.5 8.79048 19.3815 8.5795 19.1705C8.36853 18.9595 8.25 18.6734 8.25 18.375V10.125C8.25 9.82663 8.36853 9.54048 8.5795 9.3295C8.79048 9.11853 9.07663 9 9.375 9ZM15.75 10.125C15.75 9.82663 15.6315 9.54048 15.4205 9.3295C15.2095 9.11853 14.9234 9 14.625 9C14.3266 9 14.0405 9.11853 13.8295 9.3295C13.6185 9.54048 13.5 9.82663 13.5 10.125V18.375C13.5 18.6734 13.6185 18.9595 13.8295 19.1705C14.0405 19.3815 14.3266 19.5 14.625 19.5C14.9234 19.5 15.2095 19.3815 15.4205 19.1705C15.6315 18.9595 15.75 18.6734 15.75 18.375V10.125Z" fill="white"/>
<path fill-rule="evenodd" clip-rule="evenodd" d="M6 4.5V3.375C6 2.47989 6.35558 1.62145 6.98851 0.988515C7.62145 0.355579 8.47989 0 9.375 0L14.625 0C15.5201 0 16.3785 0.355579 17.0115 0.988515C17.6444 1.62145 18 2.47989 18 3.375V4.5H21.375C21.6734 4.5 21.9595 4.61853 22.1705 4.8295C22.3815 5.04048 22.5 5.32663 22.5 5.625C22.5 5.92337 22.3815 6.20952 22.1705 6.4205C21.9595 6.63147 21.6734 6.75 21.375 6.75H21V20.625C21 21.5201 20.6444 22.3785 20.0115 23.0115C19.3785 23.6444 18.5201 24 17.625 24H6.375C5.47989 24 4.62145 23.6444 3.98851 23.0115C3.35558 22.3785 3 21.5201 3 20.625V6.75H2.625C2.32663 6.75 2.04048 6.63147 1.8295 6.4205C1.61853 6.20952 1.5 5.92337 1.5 5.625C1.5 5.32663 1.61853 5.04048 1.8295 4.8295C2.04048 4.61853 2.32663 4.5 2.625 4.5H6ZM8.25 3.375C8.25 3.07663 8.36853 2.79048 8.5795 2.5795C8.79048 2.36853 9.07663 2.25 9.375 2.25H14.625C14.9234 2.25 15.2095 2.36853 15.4205 2.5795C15.6315 2.79048 15.75 3.07663 15.75 3.375V4.5H8.25V3.375ZM5.25 6.75V20.625C5.25 21.246 5.754 21.75 6.375 21.75H17.625C17.9234 21.75 18.2095 21.6315 18.4205 21.4205C18.6315 21.2095 18.75 20.9234 18.75 20.625V6.75H5.25Z" fill="white"/>
</svg>
