<svg width="25" height="21" viewBox="0 0 25 21" fill="none" xmlns="http://www.w3.org/2000/svg">
<path fill-rule="evenodd" clip-rule="evenodd" d="M9.69919 0C8.95132 -1.10637e-08 8.21078 0.146241 7.51984 0.430373C6.8289 0.714506 6.2011 1.13097 5.67227 1.65597C5.14345 2.18098 4.72397 2.80426 4.43777 3.49021C4.15158 4.17617 4.00427 4.91137 4.00427 5.65385C4.00427 6.39632 4.15158 7.13152 4.43777 7.81748C4.72397 8.50344 5.14345 9.12671 5.67227 9.65172C6.2011 10.1767 6.8289 10.5932 7.51984 10.8773C8.21078 11.1615 8.95132 11.3077 9.69919 11.3077C11.2096 11.3077 12.6581 10.712 13.7261 9.65172C14.7941 8.59142 15.3941 7.15334 15.3941 5.65385C15.3941 4.15435 14.7941 2.71628 13.7261 1.65597C12.6581 0.595671 11.2096 2.23442e-08 9.69919 0ZM6.44495 5.65385C6.44495 4.79699 6.78781 3.97523 7.39809 3.36935C8.00838 2.76346 8.83611 2.42308 9.69919 2.42308C10.5623 2.42308 11.39 2.76346 12.0003 3.36935C12.6106 3.97523 12.9534 4.79699 12.9534 5.65385C12.9534 6.5107 12.6106 7.33246 12.0003 7.93835C11.39 8.54423 10.5623 8.88462 9.69919 8.88462C8.83611 8.88462 8.00838 8.54423 7.39809 7.93835C6.78781 7.33246 6.44495 6.5107 6.44495 5.65385V5.65385Z" fill="white"/>
<path d="M6.85169 12.9232C5.23342 12.9232 3.68143 13.5615 2.53715 14.6975C1.39286 15.8335 0.75 17.3743 0.75 18.9809V19.7886C0.75 20.11 0.878571 20.4181 1.10743 20.6453C1.33629 20.8725 1.64668 21.0002 1.97034 21.0002C2.29399 21.0002 2.60439 20.8725 2.83325 20.6453C3.06211 20.4181 3.19068 20.11 3.19068 19.7886V18.9809C3.19068 18.017 3.57639 17.0925 4.26296 16.4109C4.94954 15.7293 5.88073 15.3463 6.85169 15.3463H12.5466C13.0274 15.3463 13.5034 15.4403 13.9476 15.623C14.3918 15.8056 14.7954 16.0734 15.1353 16.4109C15.4753 16.7484 15.745 17.1491 15.9289 17.59C16.1129 18.031 16.2076 18.5036 16.2076 18.9809V19.7886C16.2076 20.11 16.3362 20.4181 16.5651 20.6453C16.7939 20.8725 17.1043 21.0002 17.428 21.0002C17.7516 21.0002 18.062 20.8725 18.2909 20.6453C18.5197 20.4181 18.6483 20.11 18.6483 19.7886V18.9809C18.6483 17.3743 18.0054 15.8335 16.8612 14.6975C15.7169 13.5615 14.1649 12.9232 12.5466 12.9232H6.85169ZM16.6144 10.0963C16.6144 9.775 16.743 9.46684 16.9718 9.23964C17.2007 9.01243 17.5111 8.88478 17.8347 8.88478H19.4619V7.2694C19.4619 6.94808 19.5904 6.63992 19.8193 6.41271C20.0482 6.18551 20.3585 6.05786 20.6822 6.05786C21.0059 6.05786 21.3163 6.18551 21.5451 6.41271C21.774 6.63992 21.9025 6.94808 21.9025 7.2694V8.88478H23.5297C23.8533 8.88478 24.1637 9.01243 24.3926 9.23964C24.6214 9.46684 24.75 9.775 24.75 10.0963C24.75 10.4176 24.6214 10.7258 24.3926 10.953C24.1637 11.1802 23.8533 11.3079 23.5297 11.3079H21.9025V12.9232C21.9025 13.2446 21.774 13.5527 21.5451 13.7799C21.3163 14.0071 21.0059 14.1348 20.6822 14.1348C20.3585 14.1348 20.0482 14.0071 19.8193 13.7799C19.5904 13.5527 19.4619 13.2446 19.4619 12.9232V11.3079H17.8347C17.5111 11.3079 17.2007 11.1802 16.9718 10.953C16.743 10.7258 16.6144 10.4176 16.6144 10.0963Z" fill="white"/>
</svg>
