<svg width="25" height="21" viewBox="0 0 25 21" fill="none" xmlns="http://www.w3.org/2000/svg">
<path d="M6.54945 13.3076C5.01134 13.3076 3.53623 13.9155 2.44862 14.9974C1.36101 16.0793 0.75 17.5468 0.75 19.0769V19.8461C0.75 20.1521 0.872202 20.4456 1.08972 20.662C1.30725 20.8784 1.60227 20.9999 1.90989 20.9999C2.21751 20.9999 2.51254 20.8784 2.73006 20.662C2.94758 20.4456 3.06978 20.1521 3.06978 19.8461V19.0769C3.06978 18.1588 3.43639 17.2784 4.08895 16.6292C4.74152 15.98 5.62659 15.6153 6.54945 15.6153H11.9623C12.4192 15.6153 12.8717 15.7049 13.2939 15.8788C13.7161 16.0528 14.0997 16.3078 14.4228 16.6292C14.7459 16.9506 15.0022 17.3322 15.1771 17.7522C15.3519 18.1722 15.4419 18.6223 15.4419 19.0769V19.8461C15.4419 20.1521 15.5641 20.4456 15.7817 20.662C15.9992 20.8784 16.2942 20.9999 16.6018 20.9999C16.9095 20.9999 17.2045 20.8784 17.422 20.662C17.6395 20.4456 17.7617 20.1521 17.7617 19.8461V19.0769C17.7617 17.5468 17.1507 16.0793 16.0631 14.9974C14.9755 13.9155 13.5004 13.3076 11.9623 13.3076H6.54945ZM17.3287 5.95379C17.5462 5.73771 17.841 5.61634 18.1484 5.61634C18.4557 5.61634 18.7505 5.73771 18.968 5.95379L20.8548 7.83071L22.7415 5.95379C22.8477 5.84043 22.9758 5.7495 23.118 5.68644C23.2603 5.62337 23.4139 5.58946 23.5697 5.58673C23.7254 5.58399 23.8801 5.61249 24.0245 5.67053C24.1689 5.72856 24.3001 5.81493 24.4103 5.9245C24.5204 6.03407 24.6072 6.16458 24.6656 6.30826C24.7239 6.45193 24.7526 6.60582 24.7498 6.76075C24.7471 6.91568 24.713 7.06847 24.6496 7.21C24.5862 7.35154 24.4948 7.47893 24.3808 7.58456L22.4941 9.46148L24.3808 11.3384C24.5857 11.5571 24.6973 11.8464 24.692 12.1454C24.6867 12.4443 24.5649 12.7295 24.3524 12.9409C24.1399 13.1523 23.8532 13.2734 23.5527 13.2787C23.2522 13.284 22.9614 13.173 22.7415 12.9692L20.8548 11.0923L18.968 12.9692C18.8618 13.0825 18.7338 13.1735 18.5915 13.2365C18.4492 13.2996 18.2956 13.3335 18.1399 13.3362C17.9841 13.339 17.8294 13.3105 17.685 13.2524C17.5406 13.1944 17.4094 13.108 17.2993 12.9985C17.1891 12.8889 17.1023 12.7584 17.044 12.6147C16.9856 12.471 16.957 12.3171 16.9597 12.1622C16.9625 12.0073 16.9965 11.8545 17.0599 11.713C17.1233 11.5714 17.2147 11.444 17.3287 11.3384L19.2155 9.46148L17.3287 7.58456C17.1115 7.36821 16.9895 7.07495 16.9895 6.76918C16.9895 6.46341 17.1115 6.17014 17.3287 5.95379V5.95379Z" fill="white"/>
<path fill-rule="evenodd" clip-rule="evenodd" d="M9.69919 0C8.95132 -1.10637e-08 8.21078 0.146241 7.51984 0.430373C6.8289 0.714506 6.2011 1.13097 5.67227 1.65597C5.14345 2.18098 4.72397 2.80426 4.43777 3.49021C4.15158 4.17617 4.00427 4.91137 4.00427 5.65385C4.00427 6.39632 4.15158 7.13152 4.43777 7.81748C4.72397 8.50344 5.14345 9.12671 5.67227 9.65172C6.2011 10.1767 6.8289 10.5932 7.51984 10.8773C8.21078 11.1615 8.95132 11.3077 9.69919 11.3077C11.2096 11.3077 12.6581 10.712 13.7261 9.65172C14.7941 8.59142 15.3941 7.15334 15.3941 5.65385C15.3941 4.15435 14.7941 2.71628 13.7261 1.65597C12.6581 0.595671 11.2096 2.23442e-08 9.69919 0ZM6.44495 5.65385C6.44495 4.79699 6.78781 3.97523 7.39809 3.36935C8.00838 2.76346 8.83611 2.42308 9.69919 2.42308C10.5623 2.42308 11.39 2.76346 12.0003 3.36935C12.6106 3.97523 12.9534 4.79699 12.9534 5.65385C12.9534 6.5107 12.6106 7.33246 12.0003 7.93835C11.39 8.54423 10.5623 8.88462 9.69919 8.88462C8.83611 8.88462 8.00838 8.54423 7.39809 7.93835C6.78781 7.33246 6.44495 6.5107 6.44495 5.65385V5.65385Z" fill="white"/>
</svg>
