<svg width="25" height="21" viewBox="0 0 25 21" fill="none" xmlns="http://www.w3.org/2000/svg">
<path fill-rule="evenodd" clip-rule="evenodd" d="M9.54995 0C8.81455 -1.10637e-08 8.08635 0.146241 7.40692 0.430373C6.7275 0.714506 6.11016 1.13097 5.59015 1.65597C5.07015 2.18098 4.65765 2.80426 4.37623 3.49021C4.0948 4.17617 3.94995 4.91137 3.94995 5.65385C3.94995 6.39632 4.0948 7.13152 4.37623 7.81748C4.65765 8.50344 5.07015 9.12671 5.59015 9.65172C6.11016 10.1767 6.7275 10.5932 7.40692 10.8773C8.08635 11.1615 8.81455 11.3077 9.54995 11.3077C11.0352 11.3077 12.4595 10.712 13.5097 9.65172C14.56 8.59142 15.15 7.15334 15.15 5.65385C15.15 4.15435 14.56 2.71628 13.5097 1.65597C12.4595 0.595671 11.0352 2.23442e-08 9.54995 0ZM6.34995 5.65385C6.34995 4.79699 6.68709 3.97523 7.28721 3.36935C7.88733 2.76346 8.70126 2.42308 9.54995 2.42308C10.3986 2.42308 11.2126 2.76346 11.8127 3.36935C12.4128 3.97523 12.75 4.79699 12.75 5.65385C12.75 6.5107 12.4128 7.33246 11.8127 7.93835C11.2126 8.54423 10.3986 8.88462 9.54995 8.88462C8.70126 8.88462 7.88733 8.54423 7.28721 7.93835C6.68709 7.33246 6.34995 6.5107 6.34995 5.65385V5.65385Z" fill="white"/>
<path d="M6.75 12.923C5.1587 12.923 3.63258 13.5613 2.50736 14.6973C1.38214 15.8333 0.75 17.3741 0.75 18.9807V19.7884C0.75 20.1097 0.876428 20.4179 1.10147 20.6451C1.32652 20.8723 1.63174 21 1.95 21C2.26826 21 2.57348 20.8723 2.79853 20.6451C3.02357 20.4179 3.15 20.1097 3.15 19.7884V18.9807C3.15 18.0168 3.52928 17.0923 4.20442 16.4107C4.87955 15.729 5.79522 15.3461 6.75 15.3461H12.35C12.8228 15.3461 13.2909 15.4401 13.7277 15.6228C14.1644 15.8054 14.5613 16.0732 14.8956 16.4107C15.2299 16.7482 15.495 17.1489 15.676 17.5898C15.8569 18.0308 15.95 18.5034 15.95 18.9807V19.7884C15.95 20.1097 16.0764 20.4179 16.3015 20.6451C16.5265 20.8723 16.8317 21 17.15 21C17.4683 21 17.7735 20.8723 17.9985 20.6451C18.2236 20.4179 18.35 20.1097 18.35 19.7884V18.9807C18.35 17.3741 17.7179 15.8333 16.5926 14.6973C15.4674 13.5613 13.9413 12.923 12.35 12.923H6.75ZM17.95 14.1346C17.95 13.8133 18.0764 13.5051 18.3015 13.2779C18.5265 13.0507 18.8317 12.923 19.15 12.923H19.55C20.9291 12.923 22.2518 13.4762 23.227 14.4607C24.2021 15.4453 24.75 16.7806 24.75 18.173V19.7884C24.75 20.1097 24.6236 20.4179 24.3985 20.6451C24.1735 20.8723 23.8683 21 23.55 21C23.2317 21 22.9265 20.8723 22.7015 20.6451C22.4764 20.4179 22.35 20.1097 22.35 19.7884V18.173C22.35 17.4233 22.055 16.7043 21.5299 16.1741C21.0048 15.6439 20.2926 15.3461 19.55 15.3461H19.15C18.8317 15.3461 18.5265 15.2185 18.3015 14.9913C18.0764 14.7641 17.95 14.4559 17.95 14.1346ZM17.9868 0.387651C17.6936 0.284294 17.3721 0.299748 17.0899 0.430764C16.8077 0.56178 16.5868 0.798152 16.4737 1.09018C16.3606 1.38222 16.364 1.70716 16.4833 1.99669C16.6025 2.28623 16.8283 2.5178 17.1132 2.64273C17.7135 2.87932 18.2291 3.2933 18.5926 3.83052C18.9561 4.36774 19.1505 5.0032 19.1505 5.65381C19.1505 6.30441 18.9561 6.93987 18.5926 7.47709C18.2291 8.01431 17.7135 8.42829 17.1132 8.66488C16.8202 8.78428 16.5857 9.01553 16.4605 9.30844C16.3354 9.60134 16.3297 9.93227 16.4447 10.2294C16.5597 10.5265 16.7861 10.7658 17.0749 10.8954C17.3636 11.025 17.6913 11.0344 17.9868 10.9216C19.0368 10.5075 19.9386 9.78314 20.5743 8.84332C21.21 7.9035 21.5501 6.79189 21.5501 5.65381C21.5501 4.51572 21.21 3.40411 20.5743 2.46429C19.9386 1.52447 19.0368 0.800155 17.9868 0.386036V0.387651Z" fill="white"/>
</svg>
