<svg width="24" height="24" viewBox="0 0 24 24" fill="none" xmlns="http://www.w3.org/2000/svg">
<path fill-rule="evenodd" clip-rule="evenodd" d="M12 1.5C10.4087 1.5 8.88258 2.13214 7.75736 3.25736C6.63214 4.38258 6 5.9087 6 7.5C6 9.0913 6.63214 10.6174 7.75736 11.7426C8.88258 12.8679 10.4087 13.5 12 13.5C13.5913 13.5 15.1174 12.8679 16.2426 11.7426C17.3679 10.6174 18 9.0913 18 7.5C18 5.9087 17.3679 4.38258 16.2426 3.25736C15.1174 2.13214 13.5913 1.5 12 1.5ZM8.25 7.5C8.25 6.50544 8.64509 5.55161 9.34835 4.84835C10.0516 4.14509 11.0054 3.75 12 3.75C12.9946 3.75 13.9484 4.14509 14.6517 4.84835C15.3549 5.55161 15.75 6.50544 15.75 7.5C15.75 8.49456 15.3549 9.44839 14.6517 10.1517C13.9484 10.8549 12.9946 11.25 12 11.25C11.0054 11.25 10.0516 10.8549 9.34835 10.1517C8.64509 9.44839 8.25 8.49456 8.25 7.5Z" fill="#2A2A2A"/>
<path d="M7.875 15C6.38316 15 4.95242 15.5926 3.89752 16.6475C2.84263 17.7024 2.25 19.1332 2.25 20.625V21.375C2.25 21.6734 2.36853 21.9595 2.5795 22.1705C2.79048 22.3815 3.07663 22.5 3.375 22.5C3.67337 22.5 3.95952 22.3815 4.1705 22.1705C4.38147 21.9595 4.5 21.6734 4.5 21.375V20.625C4.5 19.7299 4.85558 18.8715 5.48851 18.2385C6.12145 17.6056 6.97989 17.25 7.875 17.25H16.125C17.0201 17.25 17.8785 17.6056 18.5115 18.2385C19.1444 18.8715 19.5 19.7299 19.5 20.625V21.375C19.5 21.6734 19.6185 21.9595 19.8295 22.1705C20.0405 22.3815 20.3266 22.5 20.625 22.5C20.9234 22.5 21.2095 22.3815 21.4205 22.1705C21.6315 21.9595 21.75 21.6734 21.75 21.375V20.625C21.75 19.1332 21.1574 17.7024 20.1025 16.6475C19.0476 15.5926 17.6168 15 16.125 15H7.875Z" fill="#2A2A2A"/>
</svg>
